<?xml version="1.0" encoding="UTF-8"?>
<svg version="1.1" viewBox="0 0 2048 2048" width="1280" height="1280" xmlns="http://www.w3.org/2000/svg">
<path transform="translate(1322,214)" d="m0 0h18l11 4 8 6 7 8 10 17 14 26 10 17 8 9 14 7 4 1h17l11-4 10-7 7-10 15-27 13-23 6-9 5-6 9-6 9-3h19l10 4 9 6 8 9 4 9 2 10v74l4 12 6 8 8 7 8 4 14 3 13-2 16-8 17-10 26-16 13-6 5-1h15l11 4 8 6 5 5 6 8 4 11v15l-4 12-16 27-15 25-6 12-2 15 2 11 6 12 9 9 10 5 9 2h71l12 2 11 6 7 7 6 10 3 9 1 9-2 12-6 12-9 9-15 9-26 14-19 11-9 7-6 9-4 10-1 12 3 14 6 10 9 8 27 15 22 12 11 7 10 9 6 10 3 13-2 15-7 14-9 9-11 5-9 2h-73l-12 3-10 7-8 9-5 13-1 12 3 12 8 16 10 16 10 17 9 16 3 9v15l-5 13-8 10-10 7-12 4h-15l-11-4-16-9-28-17-16-9-8-3h-18l-11 4-9 7-8 9-1 3 9 2 28 10 31 15 18 11 18 12 14 11 11 9v2l4 2 12 12 7 8 13 16 13 19 12 20 11 22 10 26 7 24 5 24 2 14 2 23v28l-3 31-6 29-9 29-10 24-13 25-11 17-10 14-14 17-11 12-13 13-11 9-16 13-12 8-13 8-16 9-25 12-28 10-23 6-21 4-37 4h-269l-36-2-46-1v3l4 10 2 9-1 10-4 12-6 10-7 7-8 5-18 6-34 9-2 2 12 46 1 6v11l-4 13-6 9-4 5-11 8-16 5h-12l-11-3-9-5-10-9-6-9-7-21-12-46-4-13-9-6-28-16-24-14-23-13-24-14-20-12v150l4 5 8 7 38 38 9 12 4 8 2 16-1 11-5 12-7 9-9 7-11 5-7 2h-14l-12-4-9-6-10-9-27-27-4 1-34 34-10 6-13 4h-14l-10-3-9-5-8-7-7-11-4-11v-17l5-14 7-9 12-13 34-34 5-4 2-3 1-151-22 12-24 14-52 30-24 14-9 6-13 48-7 25-7 14-10 10-12 6-9 2h-14l-10-3-12-7-8-9-6-12-2-7v-13l5-22 8-29 1-2-10-2-36-10-12-5-8-6-7-8-5-10-3-12v-8l3-12 6-11 5-6 10-7 12-5h17l15 3 44 12 15 4h6l8-5 19-11 1-2h-68l-27-1-28-2-38-1-23-2-22-4-27-7-26-10-25-12-20-12-15-11-16-13-10-9-15-15-11-14-11-15-10-17-10-18-10-23-8-24-5-22-4-27-1-17v-19l2-25 3-20 5-23 8-26 9-22 8-17 15-25 12-17 13-16 14-15 11-11 8-7 15-12 16-11 18-11 21-11 27-11 27-8 25-5 24-3 18-1h15l-4-13-5-27-3-30v-26l2-25 4-25 7-27 9-26 14-29 11-19 13-19 13-16 9-10 12-13 8-7 10-9 20-15 22-14 23-12 20-9 24-8 30-7 20-3 31-2h11l29 2 30 5 27 7 25 9 16 7 22 12 16 10 19 14 14 12 13 12 8 8 7 8 13 16 12 17 5 7 6-2 21-12 9-7 7-11 3-10v-15l-4-12-6-8v-2l-4-2-10-7-24-13-23-13-11-7-7-8-5-10-2-8v-11l4-13 7-11 10-8 10-4 6-1h74l13-4 10-7 7-9 4-10 1-4v-14l-4-12-11-19-12-20-10-17-5-12-1-5v-8l3-12 7-11 7-7 14-7 4-1h15l12 4 22 13 28 17 14 7 14 2 14-3 11-6 8-9 5-10 2-12v-73l4-11 6-9 10-8 9-4zm-294 1330 2 2h6v-2z" fill="#FAFCFC"/>
<path transform="translate(1322,214)" d="m0 0h18l11 4 8 6 7 8 10 17 14 26 10 17 8 9 14 7 4 1h17l11-4 10-7 7-10 15-27 13-23 6-9 5-6 9-6 9-3h19l10 4 9 6 8 9 4 9 2 10v74l4 12 6 8 8 7 8 4 14 3 13-2 16-8 17-10 26-16 13-6 5-1h15l11 4 8 6 5 5 6 8 4 11v15l-4 12-16 27-15 25-6 12-2 15 2 11 6 12 9 9 10 5 9 2h71l12 2 11 6 7 7 6 10 3 9 1 9-2 12-6 12-9 9-15 9-26 14-19 11-9 7-6 9-4 10-1 12 3 14 6 10 9 8 27 15 22 12 11 7 10 9 6 10 3 13-2 15-7 14-9 9-11 5-9 2h-73l-12 3-10 7-8 9-5 13-1 12 3 12 8 16 10 16 10 17 9 16 3 9v15l-5 13-8 10-10 7-12 4h-15l-11-4-16-9-28-17-16-9-8-3h-18l-11 4-9 7-8 9-1 2-10-1-37-6-20-2-19-1-2-6-10-35-8-21-12-25-7-12-7-11-10-14-11-14-10-11-7-8-17-16-18-14-13-9-18-11-23-12-27-11-30-9-20-4-33-4h-43l-29 4-27 6-33 11-10 4h-4l-8-14-3-5 1-4 20-11 13-9 7-10 4-12v-15l-4-12-6-8v-2l-4-2-10-7-24-13-23-13-11-7-7-8-5-10-2-8v-11l4-13 7-11 10-8 10-4 6-1h74l13-4 10-7 7-9 4-10 1-4v-14l-4-12-11-19-12-20-10-17-5-12-1-5v-8l3-12 7-11 7-7 14-7 4-1h15l12 4 22 13 28 17 14 7 14 2 14-3 11-6 8-9 5-10 2-12v-73l4-11 6-9 10-8 9-4z" fill="#FBA621"/>
<path transform="translate(739,1108)" d="m0 0 11 1 13 5 11 8 31 31 1 2 4-2 35-35 11-6 11-4h14l13 4 9 6 5 4 8 11 4 10 1 14-2 12-8 14-9 10-45 45-2 5v147l10-5 15-9 26-15 24-14 52-30 5-10 15-56 5-15 6-10 7-7 12-7 10-3h14l10 3 11 6 8 8 8 13 3 10v11l-10 40-3 14 18 4 25 7 12 5 11 8 8 11 5 14v15l-4 12-7 11-9 8-14 7-6 1h-9l-17-3-56-15-6-2-5 1-23 13-22 13-26 15-28 16-17 10-9 5v3l28 16 23 13 26 15 43 25 6 3h7l16-4 43-12 18-4 12 2 11 4 11 8 7 8 4 8 4 15-1 10-4 12-6 10-7 7-8 5-18 6-34 9-2 2 12 46 1 6v11l-4 13-6 9-4 5-11 8-16 5h-12l-11-3-9-5-10-9-6-9-7-21-12-46-4-13-9-6-28-16-24-14-23-13-24-14-20-12v150l4 5 8 7 38 38 9 12 4 8 2 16-1 11-5 12-7 9-9 7-11 5-7 2h-14l-12-4-9-6-10-9-27-27-4 1-34 34-10 6-13 4h-14l-10-3-9-5-8-7-7-11-4-11v-17l5-14 7-9 12-13 34-34 5-4 2-3 1-151-22 12-24 14-52 30-24 14-9 6-13 48-7 25-7 14-10 10-12 6-9 2h-14l-10-3-12-7-8-9-6-12-2-7v-13l5-22 8-29 1-2-10-2-36-10-12-5-8-6-7-8-5-10-3-12v-8l3-12 6-11 5-6 10-7 12-5h17l15 3 44 12 15 4h6l8-5 19-11h2v-2l17-9 24-14 25-14 24-14 8-5v-2l-22-12-22-13-19-11-23-13-13-8-11-6-18-10-10 1-68 18h-17l-12-5-9-7-8-9-5-10-2-8v-12l3-12 7-12 5-5h2v-2l14-7 24-7 22-6h2l-3-14-9-34-1-6v-11l4-13 6-9 5-5 7-6 11-5 8-2h8l15 4 10 6 7 7 7 12 6 18 15 57 5 5 13 8 25 14 17 10 26 15 17 10 19 11 8 5h2v-149l-3-5-43-43v-2l-4-2-9-11-5-10-2-7v-14l4-13 4-7 7-8 13-8 9-3z" fill="#4083ED"/>
<path transform="translate(1701,1010)" d="m0 0 4 1 7 6v2l4 2 12 12 7 8 13 16 13 19 12 20 11 22 10 26 7 24 5 24 2 14 2 23v28l-3 31-6 29-9 29-10 24-13 25-11 17-10 14-14 17-11 12-13 13-11 9-16 13-12 8-13 8-16 9-25 12-28 10-23 6-21 4-37 4h-269l-36-2-48-1-9-10-11-7-12-4-9-1-25 6-44 12-9 2v-2l-9 1-17-10-26-15-43-25 3-1 5 3 1-3-6-3-5-5-6-3v-2l-5-2-4-4-2-4 1-3h2v-2l13-3 84 1 134 4h270l41-4 25-5 20-6 12-4 20-8 9-4 16-8 11-6 4-1v-2l11-7 4-3h2v-2l6-4h2v-2l8-7 3-1 1-3 8-7 9-9 7-8 4-4h2l2-4 2-3h2l2-5h2v-2l5-5 8-10 10-15 12-21 8-18 7-19 5-17 5-19 3-16 3-28 1-14v-17l-3-41-2-12-3-22-1-3-2-16-7-17-6-11-3-7-2-7z" fill="#DCDEDF"/>
<path transform="translate(1429,456)" d="m0 0 20 1 20 3 16 4 15 4 24 12 9 6 7 4 5 4 3 1 5 5 3 2v2h2v2l4 2v2l4 2v2h2l7 8 12 16 6 10 8 14 8 21 5 16 3 12 2 11 1 18-1 22-4 21-7 23-2 3-2 8h-2l-3 9-4 8-10 16-9 11h-2l-2 4-12 12h-2v2l-14 11-10 7-17 10-15 6-9 3-5 2-13 3h-12l-5-6-4-3v-2h-2v-2l-3-1-7-8-3-3 1 3 2 4h2l2 9 2 5-1 3-12-16-12-14-4-5-12-12-8-7-9-8-19-14-17-11-18-10-21-10-24-9-24-7-5-1-2-6-2-4-2-5-3-10-2-9-1-11 1-21 4-26 5-19 7-19 1-4h2l1-5 6-9 5-9 8-11 18-20 8-7 8-6 6-4h2v-2l11-7 17-9 12-5 15-5 17-4 14-2z" fill="#EA7A1A"/>
<path transform="translate(1423,377)" d="m0 0h18l16 1 12 2 19 3 18 4 16 5 21 8 22 12 9 5v2l5 2 4 2v2l5 2 9 7 7 5v2l4 2v2l4 2v2l4 2 12 11v3l4 2v2l3 1 8 10 9 12 7 11 9 16 8 16 3 10 3 7 6 18 4 14 3 14 4 20 1 21-3 32-5 27-9 32-6 16-6 14-11 20-6 10-12 15-5 6h-2v2h-2l-2 4-15 15-12 11-28 21-16 10-12 7-5 2h-3v2l-8 3-6 2-7 3-9 2h-8l-3-1v-2h-2l-6-8-4 1v-2l-2 1-1 3h-2l-8-20-15-29-7-10-4-6-3-10-2-8-5-4v-5l2-1 3 5 3 3v2l3 1 3 3v2h2l7 8 4 2h10l17-4 3-2 9-3 17-7 16-10 11-8 8-7h2v-2l8-7 7-7 1-2h2l2-4 8-10 6-9 6-12 4-9h2l1-8 3-6 4-13 4-18 2-10 1-26-1-14-5-23-5-16-6-16-6-12-4-7-7-11-12-16-1-3-4-2v-2h-2l-6-7-2-1v-2h-2v-2l-4-2-4-3v-2l-4-1-8-6-11-6-5-3-14-7-6-2v-2l-8-1-23-6-20-3-20-1-21 2-18 4-7 2-16 6-15 7-9 5-9 6h-2v2l-11 7-11 10-17 17-10 14-9 15-2 1-2 7-5 11-7 22-4 20-2 19-1 17 1 14 3 11 4 10 2 4v4l2 1-10-1-29-4-10-1-42-1v-20l-2-16v-13l2-27 5-28 4-16 5-16 5-15 14-28 8-12 9-12 2-3h2l2-4 3-4h2l2-5 5-5h2l2-4h2l1-3 6-5 3-4h2l1-3 8-7 13-10h2v-2l12-8 22-12 11-5 20-8 13-4 14-4 23-5 18-2z" fill="#F49120"/>
<path transform="translate(1475,1083)" d="m0 0 5 1 6 5 12 18 12 19 17 28 15 26 15 28 17 34 11 27 6 18 4 17v24l-5 22-6 15-7 13-8 11-9 10-8 8-14 10-16 8-17 6-19 4-13 1-16-2-17-4-15-6-17-9-11-9-10-9-9-10-12-21-8-21-3-13-1-8v-15l5-25 8-23 12-28 16-32 13-23 7-13 9-15 13-21 14-22 8-12 7-8 5-3z" fill="#4083EE"/>
<path transform="translate(261,1417)" d="m0 0 8 1 18 7 8 2 17 5 24 5 14 2 23 1 51 1 21 1 13 1 71 4 39 1h14l58 2 22 1h16l-1-2 5 2 28 16 5 3-2 4-84 48-11 6h-2l-1 2v-2h-68l-27-1-28-2-38-1-23-2-22-4-27-7-26-10-25-12-20-12-15-11-16-13-10-9-12-12 2-10z" fill="#DCDEDF"/>
<path transform="translate(1423,567)" d="m0 0h22l14 3 9 4 12 7 9 9 8 11 8 16 3 10 1 7v15l-2 12-7 17-8 12-10 10-14 9-13 5-14 3h-14l-10-2-12-4-14-8-9-7-9-10-7-11-4-10-3-11v-24l4-16 7-14 8-10 10-9 13-8 16-5z" fill="#E03A51"/>
<path transform="translate(751,816)" d="m0 0 7 2v2l4 1 3 6v6h2l1 7v27l-1 5h-2l-3 9-3 3h-5l-1-3-3-2v-2l-1-5h-2l-1 4-2-13-1-12-4 10-4-4-3-16 1-8 2-12h4l4 4 1-2 5 1 1-7z" fill="#DCDEDF"/>
<path transform="translate(1171,688)" d="m0 0h43l33 4 23 5-4 1-21-4h-8v3l10 1 25 6 17 5 6 3 7 3 2 4-10-1-8-3-12-3-14-1-7-2-16-3-15-2-9-2-8-4-8-2 1-2 8-1h24l-1-1-22-2h-27l-11 1-1 2-7 1-6-1-21 3-25 6-4-1 23-6 20-4z" fill="#DCDEDF"/>
<path transform="translate(760,1238)" d="m0 0 2 1 1 3v149l-3 1-15-9-3-3 6 2 10 6 3 1-2-20-1-5-2-33-1-5v-30l2-16v-13l3-19z" fill="#DCDEDF"/>
<path transform="translate(1496,935)" d="m0 0 30 2 30 4 27 5-2 5-5 2h-6l-2-1-29-1-16-3-2-1v-2l-6-1-3-3-12-2-4-2z" fill="#DCDEDF"/>
<path transform="translate(723,824)" d="m0 0 3 1 3 6v35l-3 1v2l-4 2-1 2h-3l-1 3-2-1-1-10 2-27 4-13z" fill="#DCDEDF"/>
<path transform="translate(468,1336)" d="m0 0 2 1-6 7-6 12-2 9v12l3 11 7 11 7 7 12 7 6 2h17l57-15 4 1-55 15-11 2h-9l-10-3-12-7-9-9-4-6-4-10-2-14 2-11 3-9 6-9z" fill="#DCDEDF"/>
<path transform="translate(1437,825)" d="m0 0 4 2 7 11 6 9v2h2l3 6 2 2 1 6 3 2 2 8 3 9-1 4v-2h-2l-4-11v-3h-2l-4-8-2-2-3-7-12-21-3-5z" fill="#DCDEDF"/>
<path transform="translate(1774,783)" d="m0 0h20l7 1 26 1-2 2h-38l-23-1 2-2z" fill="#F28F22"/>
<path transform="translate(448,1221)" d="m0 0h2l4 6 2 1v7l-6 8h-3l-1-12z" fill="#DCDEDF"/>
<path transform="translate(701,832)" d="m0 0 5 4-1 9-5 2-1-9 1-5z" fill="#DCDEDF"/>
<path transform="translate(1057,695)" d="m0 0 3 3 6 11 2 5 9-3 3 1-9 4-4-1-5-7v-3h-2z" fill="#DCDEDF"/>
<path transform="translate(1800,784)" d="m0 0 27 1-2 2h-26z" fill="#F59624"/>
<path transform="translate(702,1465)" d="m0 0 5 2 6 3-1 3-5 2-3-7z" fill="#FBFDFD"/>
</svg>
